<?xml version="1.0" standalone="no"?>
<!DOCTYPE svg PUBLIC "-//W3C//DTD SVG 20010904//EN"
 "http://www.w3.org/TR/2001/REC-SVG-20010904/DTD/svg10.dtd">
<svg version="1.0" xmlns="http://www.w3.org/2000/svg"
 width="267.000000pt" height="267.000000pt" viewBox="0 0 267.000000 267.000000"
 preserveAspectRatio="xMidYMid meet">
<g transform="translate(0.000000,267.000000) scale(0.100000,-0.100000)"
fill="#000000" stroke="none">
<path d="M1175 2519 c-230 -29 -483 -151 -658 -318 -492 -469 -504 -1244 -27
-1721 226 -225 527 -350 845 -350 732 0 1299 653 1190 1371 -59 393 -304 729
-660 907 -196 97 -459 140 -690 111z m-152 -285 c121 -31 253 -121 307 -210
l22 -34 30 41 c105 146 247 219 423 219 152 0 289 -57 398 -165 167 -166 201
-398 96 -663 -113 -283 -403 -587 -829 -868 -143 -93 -377 -229 -493 -285 -57
-28 -83 -19 -80 27 16 217 15 270 -5 353 -36 142 -79 212 -246 404 -185 212
-195 226 -240 313 -48 96 -67 171 -73 294 -6 120 9 197 57 295 87 178 278 294
484 295 48 0 115 -7 149 -16z"/>
<path d="M770 2163 c-148 -31 -284 -153 -338 -305 -21 -61 -25 -90 -25 -173 1
-145 44 -269 135 -392 l39 -53 182 0 183 0 20 63 c20 60 21 62 55 62 33 0 34
-2 51 -60 9 -33 17 -58 18 -55 1 3 23 151 48 330 l47 325 33 3 c20 2 34 -2 37
-10 2 -7 32 -215 65 -463 33 -247 62 -457 63 -465 3 -15 11 14 101 410 l52
225 35 0 34 0 20 -153 c19 -147 21 -152 37 -132 30 34 54 24 101 -44 l18 -26
169 0 169 0 20 29 c12 16 39 67 61 113 90 188 106 381 42 511 -56 113 -164
205 -292 247 -54 18 -82 21 -166 18 -89 -3 -107 -7 -167 -36 -81 -40 -158
-116 -212 -208 -32 -55 -42 -65 -63 -62 -19 2 -28 14 -44 55 -30 81 -104 155
-206 205 -83 42 -88 43 -191 45 -58 1 -117 -1 -131 -4z"/>
<path d="M1178 1314 c-21 -146 -40 -269 -43 -275 -9 -13 -51 -11 -63 4 -5 6
-12 21 -15 32 -3 11 -13 46 -23 79 -11 41 -19 54 -25 45 -6 -11 -50 -15 -188
-19 l-179 -5 96 -110 c114 -131 162 -203 195 -293 41 -110 52 -171 51 -294 l0
-118 95 52 c358 192 646 401 868 631 164 170 167 157 -38 157 -140 0 -176 3
-189 15 -15 14 -18 10 -36 -41 -20 -61 -43 -81 -73 -65 -19 11 -25 35 -36 151
-4 36 -9 72 -12 80 -3 8 -36 -118 -74 -280 -37 -162 -71 -305 -74 -318 -5 -19
-11 -23 -37 -20 -26 2 -33 9 -39 33 -4 17 -31 206 -60 420 -29 215 -55 393
-58 397 -4 4 -23 -112 -43 -258z"/>
</g>
</svg>
